# xmcd CD database file
#
# Track frame offsets:
#	150
#	13486
#	31478
#	44063
#	56384
#	70163
#	84333
#	99296
#	111116
#	123991
#
# Disc length: 1855 seconds
#
# Revision: 0
# Processed by: cddbd v1.5.2PL0 Copyright (c) Steve Scherf et al.
# Submitted via: CDex 1.70beta2
#
DISCID=81073d0a
DTITLE=BASEMENT TORTURE KILLINGS - A NIGHT OF BRUTAL TORTURE
DYEAR=2014
DGENRE=Brutal Death Metal
TTITLE0=PROGRESSIVE DEPRAVITY
TTITLE1=BASEMENT BITCH
TTITLE2=CAR TRUNK CAROLINE
TTITLE3=GORGASMIC MOVEMENTS IN THE DARK
TTITLE4=MINUS FINGERS TEETH AND TOES
TTITLE5=SUFFOCATION
TTITLE6=KEPT IN A HOLE
TTITLE7=MALLEUS MALEFICARUM
TTITLE8=WITHOUT PERMISSION FORCED SUBMISSION
TTITLE9=KILL FOR SATAN
EXTD=YEAR: 2014
EXTT0=
EXTT1=
EXTT2=
EXTT3=
EXTT4=
EXTT5=
EXTT6=
EXTT7=
EXTT8=
EXTT9=
PLAYORDER=
